HIERARCHY
ROOT Root
{
  OFFSET 0.0 0.0 0.0
  CHANNELS 6 Xposition Yposition Zposition Zrotation Yrotation Xrotation
  JOINT Hips
  {
    OFFSET 0.0 100.0 0.0
    CHANNELS 6 Xposition Yposition Zposition Zrotation Yrotation Xrotation
    JOINT Spine1
    {
      OFFSET 5.003913 -0.037094 -0.013727
      CHANNELS 3 Zrotation Yrotation Xrotation
      JOINT Spine2
      {
        OFFSET 7.125363 -1e-06 0.0
        CHANNELS 3 Zrotation Yrotation Xrotation
        JOINT Chest
        {
          OFFSET 7.594027 1e-06 0.0
          CHANNELS 3 Zrotation Yrotation Xrotation
          JOINT Neck1
          {
            OFFSET 26.313086 -0.460272 -0.181672
            CHANNELS 3 Zrotation Yrotation Xrotation
            JOINT Neck2
            {
              OFFSET 8.045911 0.0 0.0
              CHANNELS 3 Zrotation Yrotation Xrotation
              JOINT Head
              {
                OFFSET 6.432774 0.0 0.0
                CHANNELS 3 Zrotation Yrotation Xrotation
                JOINT HeadEnd
                {
                  OFFSET 16.169773 0.06451 0.00362
                  CHANNELS 3 Zrotation Yrotation Xrotation
                }
                JOINT Jaw
                {
                  OFFSET 0.108741 3.12938 0.002639
                  CHANNELS 3 Zrotation Yrotation Xrotation
                }
                JOINT LeftEye
                {
                  OFFSET 4.45173 8.166359 3.206392
                  CHANNELS 3 Zrotation Yrotation Xrotation
                }
                JOINT RightEye
                {
                  OFFSET 4.436895 8.135758 -3.222429
                  CHANNELS 3 Zrotation Yrotation Xrotation
                }
              }
            }
          }
          JOINT LeftShoulder
          {
            OFFSET 23.218927 5.195579 1.621656
            CHANNELS 3 Zrotation Yrotation Xrotation
            JOINT LeftArm
            {
              OFFSET 15.902118 2e-06 -2e-06
              CHANNELS 3 Zrotation Yrotation Xrotation
              JOINT LeftForeArm
              {
                OFFSET 28.739307 0.0 -1e-06
                CHANNELS 3 Zrotation Yrotation Xrotation
                JOINT LeftHand
                {
                  OFFSET 27.093981 -4e-06 0.0
                  CHANNELS 3 Zrotation Yrotation Xrotation
                  JOINT LeftHandThumb1
                  {
                    OFFSET 2.276781 3.380274 0.83384
                    CHANNELS 3 Zrotation Yrotation Xrotation
                    JOINT LeftHandThumb2
                    {
                      OFFSET 4.705309 -1e-06 -1e-06
                      CHANNELS 3 Zrotation Yrotation Xrotation
                      JOINT LeftHandThumb3
                      {
                        OFFSET 2.798515 0.0 3e-06
                        CHANNELS 3 Zrotation Yrotation Xrotation
                        JOINT LeftHandThumbEnd
                        {
                          OFFSET 3.180793 4e-06 -4e-06
                          CHANNELS 3 Zrotation Yrotation Xrotation
                        }
                      }
                    }
                  }
                  JOINT LeftHandIndex1
                  {
                    OFFSET 3.247786 2.352677 0.137192
                    CHANNELS 3 Zrotation Yrotation Xrotation
                    JOINT LeftHandIndex2
                    {
                      OFFSET 6.367095 1e-06 0.0
                      CHANNELS 3 Zrotation Yrotation Xrotation
                      JOINT LeftHandIndex3
                      {
                        OFFSET 3.662364 0.0 0.0
                        CHANNELS 3 Zrotation Yrotation Xrotation
                        JOINT LeftHandIndex4
                        {
                          OFFSET 2.329242 4e-06 -4e-06
                          CHANNELS 3 Zrotation Yrotation Xrotation
                          JOINT LeftHandIndexEnd
                          {
                            OFFSET 2.767823 1e-06 0.0
                            CHANNELS 3 Zrotation Yrotation Xrotation
                          }
                        }
                      }
                    }
                  }
                  JOINT LeftHandMiddle1
                  {
                    OFFSET 3.163612 0.945023 -0.406112
                    CHANNELS 3 Zrotation Yrotation Xrotation
                    JOINT LeftHandMiddle2
                    {
                      OFFSET 6.276789 3e-06 0.0
                      CHANNELS 3 Zrotation Yrotation Xrotation
                      JOINT LeftHandMiddle3
                      {
                        OFFSET 4.35652 -1e-06 4e-06
                        CHANNELS 3 Zrotation Yrotation Xrotation
                        JOINT LeftHandMiddle4
                        {
                          OFFSET 2.996877 0.0 8e-06
                          CHANNELS 3 Zrotation Yrotation Xrotation
                          JOINT LeftHandMiddleEnd
                          {
                            OFFSET 2.323256 3e-06 -4e-06
                            CHANNELS 3 Zrotation Yrotation Xrotation
                          }
                        }
                      }
                    }
                  }
                  JOINT LeftHandRing1
                  {
                    OFFSET 2.882606 -0.309162 0.107445
                    CHANNELS 3 Zrotation Yrotation Xrotation
                    JOINT LeftHandRing2
                    {
                      OFFSET 6.033198 0.0 4e-06
                      CHANNELS 3 Zrotation Yrotation Xrotation
                      JOINT LeftHandRing3
                      {
                        OFFSET 4.350578 3e-06 0.0
                        CHANNELS 3 Zrotation Yrotation Xrotation
                        JOINT LeftHandRing4
                        {
                          OFFSET 2.651321 2e-06 -7e-06
                          CHANNELS 3 Zrotation Yrotation Xrotation
                          JOINT LeftHandRingEnd
                          {
                            OFFSET 1.937663 1e-06 -4e-06
                            CHANNELS 3 Zrotation Yrotation Xrotation
                          }
                        }
                      }
                    }
                  }
                  JOINT LeftHandPinky1
                  {
                    OFFSET 2.865315 -1.525436 0.575687
                    CHANNELS 3 Zrotation Yrotation Xrotation
                    JOINT LeftHandPinky2
                    {
                      OFFSET 5.54936 1e-06 -8e-06
                      CHANNELS 3 Zrotation Yrotation Xrotation
                      JOINT LeftHandPinky3
                      {
                        OFFSET 3.070974 0.0 -4e-06
                        CHANNELS 3 Zrotation Yrotation Xrotation
                        JOINT LeftHandPinky4
                        {
                          OFFSET 1.549672 1e-06 0.0
                          CHANNELS 3 Zrotation Yrotation Xrotation
                          JOINT LeftHandPinkyEnd
                          {
                            OFFSET 1.952123 0.0 0.0
                            CHANNELS 3 Zrotation Yrotation Xrotation
                          }
                        }
                      }
                    }
                  }
                }
              }
            }
          }
          JOINT RightShoulder
          {
            OFFSET 23.161716 5.296122 -1.380114
            CHANNELS 3 Zrotation Yrotation Xrotation
            JOINT RightArm
            {
              OFFSET -16.027195 -2e-06 1.1e-05
              CHANNELS 3 Zrotation Yrotation Xrotation
              JOINT RightForeArm
              {
                OFFSET -28.736639 4e-06 2e-06
                CHANNELS 3 Zrotation Yrotation Xrotation
                JOINT RightHand
                {
                  OFFSET -27.133619 6e-06 0.0
                  CHANNELS 3 Zrotation Yrotation Xrotation
                  JOINT RightHandThumb1
                  {
                    OFFSET -2.274328 -3.351035 -0.83067
                    CHANNELS 3 Zrotation Yrotation Xrotation
                    JOINT RightHandThumb2
                    {
                      OFFSET -4.703594 -3e-06 2e-06
                      CHANNELS 3 Zrotation Yrotation Xrotation
                      JOINT RightHandThumb3
                      {
                        OFFSET -2.794935 -4e-06 -3e-06
                        CHANNELS 3 Zrotation Yrotation Xrotation
                        JOINT RightHandThumbEnd
                        {
                          OFFSET -3.183852 4e-06 1e-06
                          CHANNELS 3 Zrotation Yrotation Xrotation
                        }
                      }
                    }
                  }
                  JOINT RightHandIndex1
                  {
                    OFFSET -3.253496 -2.33755 -0.127667
                    CHANNELS 3 Zrotation Yrotation Xrotation
                    JOINT RightHandIndex2
                    {
                      OFFSET -6.344434 0.0 0.0
                      CHANNELS 3 Zrotation Yrotation Xrotation
                      JOINT RightHandIndex3
                      {
                        OFFSET -3.654871 0.0 -8e-06
                        CHANNELS 3 Zrotation Yrotation Xrotation
                        JOINT RightHandIndex4
                        {
                          OFFSET -2.327586 -1e-06 0.0
                          CHANNELS 3 Zrotation Yrotation Xrotation
                          JOINT RightHandIndexEnd
                          {
                            OFFSET -2.770001 3e-06 8e-06
                            CHANNELS 3 Zrotation Yrotation Xrotation
                          }
                        }
                      }
                    }
                  }
                  JOINT RightHandMiddle1
                  {
                    OFFSET -3.168223 -0.944764 0.411762
                    CHANNELS 3 Zrotation Yrotation Xrotation
                    JOINT RightHandMiddle2
                    {
                      OFFSET -6.266691 -1e-06 -4e-06
                      CHANNELS 3 Zrotation Yrotation Xrotation
                      JOINT RightHandMiddle3
                      {
                        OFFSET -4.348901 0.0 0.0
                        CHANNELS 3 Zrotation Yrotation Xrotation
                        JOINT RightHandMiddle4
                        {
                          OFFSET -3.00024 2e-06 -4e-06
                          CHANNELS 3 Zrotation Yrotation Xrotation
                          JOINT RightHandMiddleEnd
                          {
                            OFFSET -2.321477 -4e-06 -4e-06
                            CHANNELS 3 Zrotation Yrotation Xrotation
                          }
                        }
                      }
                    }
                  }
                  JOINT RightHandRing1
                  {
                    OFFSET -2.885654 0.293261 -0.119232
                    CHANNELS 3 Zrotation Yrotation Xrotation
                    JOINT RightHandRing2
                    {
                      OFFSET -6.032835 -1e-06 -4e-06
                      CHANNELS 3 Zrotation Yrotation Xrotation
                      JOINT RightHandRing3
                      {
                        OFFSET -4.33881 0.0 -4e-06
                        CHANNELS 3 Zrotation Yrotation Xrotation
                        JOINT RightHandRing4
                        {
                          OFFSET -2.654903 -4e-06 -4e-06
                          CHANNELS 3 Zrotation Yrotation Xrotation
                          JOINT RightHandRingEnd
                          {
                            OFFSET -1.935122 0.0 4e-06
                            CHANNELS 3 Zrotation Yrotation Xrotation
                          }
                        }
                      }
                    }
                  }
                  JOINT RightHandPinky1
                  {
                    OFFSET -2.866241 1.503904 -0.60527
                    CHANNELS 3 Zrotation Yrotation Xrotation
                    JOINT RightHandPinky2
                    {
                      OFFSET -5.553177 -2e-06 0.0
                      CHANNELS 3 Zrotation Yrotation Xrotation
                      JOINT RightHandPinky3
                      {
                        OFFSET -3.062664 -1e-06 -4e-06
                        CHANNELS 3 Zrotation Yrotation Xrotation
                        JOINT RightHandPinky4
                        {
                          OFFSET -1.546529 2e-06 4e-06
                          CHANNELS 3 Zrotation Yrotation Xrotation
                          JOINT RightHandPinkyEnd
                          {
                            OFFSET -1.952341 0.0 -4e-06
                            CHANNELS 3 Zrotation Yrotation Xrotation
                          }
                        }
                      }
                    }
                  }
                }
              }
            }
          }
        }
      }
    }
    JOINT LeftLeg
    {
      OFFSET -8.443107 2.567604 10.043214
      CHANNELS 3 Zrotation Yrotation Xrotation
      JOINT LeftShin
      {
        OFFSET 43.229198 1e-06 -1e-06
        CHANNELS 3 Zrotation Yrotation Xrotation
        JOINT LeftFoot
        {
          OFFSET 42.298611 1e-06 1e-06
          CHANNELS 3 Zrotation Yrotation Xrotation
          JOINT LeftToeBase
          {
            OFFSET 14.165858 1e-06 0.0
            CHANNELS 3 Zrotation Yrotation Xrotation
            JOINT LeftToeEnd
            {
              OFFSET 6.7141 -0.234461 0.0
              CHANNELS 3 Zrotation Yrotation Xrotation
            }
          }
        }
      }
    }
    JOINT RightLeg
    {
      OFFSET -8.303923 2.592729 -10.047278
      CHANNELS 3 Zrotation Yrotation Xrotation
      JOINT RightShin
      {
        OFFSET -43.369682 0.0 1e-06
        CHANNELS 3 Zrotation Yrotation Xrotation
        JOINT RightFoot
        {
          OFFSET -42.260784 4e-06 2e-06
          CHANNELS 3 Zrotation Yrotation Xrotation
          JOINT RightToeBase
          {
            OFFSET -14.222245 -2e-06 -1e-06
            CHANNELS 3 Zrotation Yrotation Xrotation
            JOINT RightToeEnd
            {
              OFFSET -6.660062 0.232574 -2e-06
              CHANNELS 3 Zrotation Yrotation Xrotation
            }
          }
        }
      }
    }
  }
}
MOTION
Frames: 4
Frame Time: 0.03333333333333333
0.0 0.0 0.0 0.0 -0.0 0.0 0.11956 99.316696 -1.192446 89.177773 2.981807 90.777687 -4.932615 0.100046 0.024514 -12.54013 -0.466084 0.250377 15.82951 -1.190909 -2.779073 23.998276 -1.330121 2.725668 -2.75481 -0.307855 -0.31093 -34.793152 0.559408 -2.588521 6e-06 -0.0 -0.0 0.091898 -0.027673 -0.10199 0.060623 -0.16278 -0.116689 0.044827 0.101477 -0.093683 133.309128 -78.267075 -125.675896 65.861061 -1.41697 -81.521194 15.386334 1.166118 0.50249 -8.143229 7.437484 -65.765816 17.636631 -26.322721 52.411179 -19.46665 -14.395597 29.410378 0.0 -8.774821 -2e-06 15.072054 -16.874708 6.348297 -0.609774 -1.795653 -3.889325 -4.807087 -11.046809 -2.937849 3e-06 -20.976013 1e-06 -5.019971 -25.033552 -4.03188 7e-06 0.0 -0.0 -10.634533 -5.68697 -3.565587 10.573272 -17.922947 -3.113899 2e-06 -13.821205 -0.0 -0.501779 -31.181498 -4.027016 -10.558685 -57.270596 6.295249 -13.982714 -7.150197 -2.875041 13.77273 -8.401491 -3.21824 0.347734 -34.21154 0.771654 -0.963027 -17.733366 2.621018 2e-06 -0.0 -1e-06 -17.346416 -20.095217 -4.201782 21.757557 -1.638374 3.866428 0.0 -6.338823 2e-06 -1.69759 -22.59174 -6.194007 1e-06 -4e-06 -1e-06 -59.598495 -75.720863 -112.349335 49.930367 -2.911311 -71.539444 17.724329 1.203362 -0.025191 -5.29142 10.802237 -80.757179 22.182117 -20.375896 49.933319 -16.701807 -16.743528 28.476528 0.0 -12.690601 -2e-06 14.672063 -16.819752 4.051844 -0.10592 -1.513856 -4.275882 -5.039039 -5.612871 -2.953556 3e-06 -11.020523 0.0 -6.111297 -15.895328 -3.840469 2e-06 -3e-06 0.0 -10.283365 -5.680286 -4.341837 11.028291 -11.302406 -2.372633 -1.384268 -14.238575 -6.32012 -0.625441 -26.924175 -3.827598 -5.136339 -49.199841 -1.804688 -13.708524 -7.363476 -3.720939 18.141148 -14.052738 -3.242674 5e-06 -18.787262 -0.0 -0.429711 -8.456043 2.555501 3e-06 -1e-06 -1e-06 -15.923536 -20.094482 -5.473584 30.41921 -7.190826 1.735927 4e-06 -8.162924 -1e-06 -1.861904 -22.861469 -6.167941 -1e-06 -2e-06 -0.0 175.763016 -5.532382 -2.219071 20.517097 -0.114973 0.335857 -82.568054 3.230628 -5.177259 -6.367007 1.550542 2.130766 -1.0 0.0 -0.0 -1.75071 -2.822364 -7.204561 18.36484 0.065671 0.017766 -81.609283 -8.016668 -8.059347 -7.017487 0.626808 1.617655 -1.000002 1e-06 -0.0 
0.0 0.0 0.0 0.0 -0.0 0.0 0.158983 99.30986 -1.253603 89.179741 2.94959 90.748581 -4.891822 0.111893 0.02107 -12.534249 -0.43905 0.266575 15.793836 -1.184315 -2.791792 23.911339 -1.411591 2.718007 -2.75505 -0.312408 -0.325372 -34.697582 0.584285 -2.643037 6e-06 -0.0 -0.0 0.091643 -0.024424 -0.095989 0.081486 -0.158091 -0.111103 0.064297 0.103482 -0.087011 133.335648 -78.218208 -125.727844 65.737099 -1.375642 -81.483368 15.635119 1.041652 0.526501 -8.307533 7.366493 -65.61084 17.636635 -26.322731 52.41119 -19.466663 -14.395596 29.410385 -1e-06 -8.774822 -2e-06 15.056285 -16.904448 6.357647 -0.609776 -1.795654 -3.889327 -4.807087 -11.046809 -2.937851 4e-06 -20.976019 1e-06 -5.01997 -25.033558 -4.031883 6e-06 1e-06 1e-06 -10.634535 -5.686972 -3.56559 10.573274 -17.922953 -3.113899 2e-06 -13.821211 -0.0 -0.501778 -31.181507 -4.027015 -10.620826 -57.268902 6.312584 -13.982714 -7.150198 -2.875042 13.772729 -8.401493 -3.218241 0.347734 -34.211552 0.771655 -0.963028 -17.73337 2.621018 0.0 -0.0 -1e-06 -17.346418 -20.095221 -4.201782 21.757559 -1.638375 3.866429 -0.0 -6.338822 1e-06 -1.697591 -22.591742 -6.194008 0.0 -3e-06 -1e-06 -60.512314 -75.667282 -111.472122 49.738052 -2.819205 -71.529228 17.932596 1.176197 0.001901 -5.377404 10.822071 -80.838936 22.182119 -20.375895 49.933319 -16.701809 -16.743528 28.47653 -2e-06 -12.690601 -1e-06 14.659435 -16.793423 4.073663 -0.105922 -1.513857 -4.275881 -5.03904 -5.612871 -2.953556 4e-06 -11.020523 -1e-06 -6.111298 -15.89533 -3.84047 2e-06 -2e-06 0.0 -10.283369 -5.680288 -4.341839 11.028291 -11.302404 -2.372631 -1.384268 -14.238579 -6.32012 -0.625439 -26.924191 -3.8276 -5.145019 -49.179451 -1.777977 -13.708522 -7.363474 -3.72094 18.141146 -14.052738 -3.242674 4e-06 -18.787266 0.0 -0.429711 -8.456039 2.555505 3e-06 -3e-06 -1e-06 -15.923532 -20.094481 -5.473585 30.419207 -7.190827 1.735929 5e-06 -8.162925 -2e-06 -1.861903 -22.861469 -6.167937 0.0 -3e-06 -1e-06 175.655121 -5.513431 -2.190758 20.621063 -0.118468 0.333687 -82.504318 3.211648 -5.152872 -6.35447 1.553594 2.129948 -0.999999 -0.0 -0.0 -1.872656 -2.851157 -7.17302 18.470886 0.06917 0.01867 -81.616127 -8.043344 -8.059289 -7.030059 0.625504 1.612773 -1.000002 -1e-06 -0.0 
0.0 0.0 0.0 0.0 -0.0 0.0 0.19308 99.307945 -1.31662 89.184731 2.897985 90.716133 -4.849554 0.123901 9.9e-05 -12.543053 -0.426527 0.274738 15.758925 -1.1779 -2.792559 23.760181 -1.473246 2.688623 -2.757458 -0.328719 -0.296181 -34.589535 0.598277 -2.66972 6e-06 -0.0 -0.0 0.092675 -0.022612 -0.092002 0.100413 -0.152008 -0.106412 0.080237 0.101315 -0.083848 133.098877 -78.212738 -125.53643 65.608154 -1.367363 -81.490128 15.914397 0.945358 0.539563 -8.465991 7.302087 -65.439384 17.636623 -26.322718 52.411171 -19.466652 -14.395596 29.410378 -0.0 -8.774819 -1e-06 14.972225 -16.940596 6.403603 -0.609776 -1.795652 -3.889327 -4.807087 -11.046806 -2.937849 3e-06 -20.976006 2e-06 -5.019969 -25.033546 -4.031881 6e-06 0.0 1e-06 -10.634529 -5.686968 -3.565587 10.573271 -17.922945 -3.113899 2e-06 -13.821205 1e-06 -0.501781 -31.181494 -4.027012 -10.689658 -57.24197 6.349879 -13.98271 -7.150196 -2.87504 13.772726 -8.401489 -3.21824 0.347732 -34.211533 0.771655 -0.963028 -17.733364 2.621017 1e-06 0.0 -2e-06 -17.346413 -20.095209 -4.201781 21.757555 -1.638376 3.866427 1e-06 -6.338821 1e-06 -1.697588 -22.591734 -6.194003 -1e-06 -1e-06 -1e-06 -61.43306 -75.632683 -110.590866 49.647552 -2.753835 -71.590179 18.130985 1.206941 0.017721 -5.479109 10.8665 -80.942314 22.182116 -20.375885 49.9333 -16.701809 -16.743526 28.476521 -2e-06 -12.690601 -3e-06 14.609618 -16.78632 4.075199 -0.105919 -1.513857 -4.275878 -5.039038 -5.61287 -2.953556 4e-06 -11.020523 -2e-06 -6.111298 -15.895329 -3.840471 2e-06 -1e-06 0.0 -10.283369 -5.680288 -4.341837 11.028289 -11.302405 -2.372632 -1.384268 -14.238579 -6.32012 -0.625441 -26.924187 -3.8276 -5.124155 -49.083458 -1.784385 -13.708522 -7.363477 -3.720938 18.141146 -14.052737 -3.242673 8e-06 -18.787262 -3e-06 -0.429711 -8.456042 2.555502 3e-06 -1e-06 0.0 -15.923532 -20.094482 -5.473583 30.419205 -7.190828 1.735928 5e-06 -8.162925 -3e-06 -1.8619 -22.861467 -6.167944 2e-06 -4e-06 -1e-06 175.540268 -5.497049 -2.174065 20.689499 -0.121074 0.32566 -82.495323 3.17994 -5.148135 -6.34839 1.548439 2.125546 -0.999999 -0.0 -0.0 -2.00554 -2.883167 -7.18298 18.553589 0.071428 0.01307 -81.610535 -8.03036 -8.033502 -7.032654 0.621265 1.607481 -1.000002 -0.0 0.0 
0.0 0.0 0.0 0.0 -0.0 0.0 0.222114 99.307503 -1.377851 89.196877 2.838384 90.669083 -4.808151 0.127368 -0.02881 -12.551782 -0.423746 0.270088 15.716701 -1.17719 -2.789274 23.545963 -1.521122 2.657868 -2.767561 -0.339904 -0.236928 -34.458794 0.610447 -2.664211 6e-06 -0.0 -0.0 0.089797 -0.022357 -0.092165 0.10521 -0.145007 -0.10583 0.083635 0.094949 -0.085393 132.745865 -78.236519 -125.227654 65.467178 -1.373912 -81.50573 16.193693 0.848521 0.527955 -8.565592 7.281894 -65.340508 17.636633 -26.322735 52.411201 -19.466665 -14.395598 29.410395 -1e-06 -8.774822 -1e-06 14.883012 -16.979687 6.448508 -0.609776 -1.795654 -3.889327 -4.807088 -11.046813 -2.937851 4e-06 -20.976021 0.0 -5.01997 -25.03356 -4.031884 6e-06 0.0 1e-06 -10.634535 -5.68697 -3.565588 10.573277 -17.922955 -3.113903 2e-06 -13.821213 1e-06 -0.501775 -31.181511 -4.027019 -10.743635 -57.235291 6.380587 -13.982717 -7.150198 -2.875042 13.772732 -8.401495 -3.218243 0.347735 -34.211555 0.771655 -0.963027 -17.733372 2.62102 0.0 1e-06 -1e-06 -17.34642 -20.095221 -4.201784 21.757561 -1.638378 3.86643 2e-06 -6.338824 1e-06 -1.697588 -22.591745 -6.194006 -1e-06 0.0 -1e-06 -62.388866 -75.583641 -109.694206 49.641922 -2.735673 -71.725502 18.293211 1.263462 0.019565 -5.538674 10.937932 -81.049515 22.182121 -20.375898 49.933338 -16.701817 -16.74353 28.47654 -2e-06 -12.690603 -0.0 14.541161 -16.79336 4.062902 -0.105917 -1.513855 -4.275882 -5.039045 -5.612874 -2.953557 5e-06 -11.020527 -1e-06 -6.1113 -15.895338 -3.840472 2e-06 -3e-06 1e-06 -10.283375 -5.680292 -4.341839 11.028297 -11.302407 -2.372634 -1.384269 -14.238582 -6.320127 -0.625438 -26.924191 -3.827605 -5.087498 -48.9575 -1.805717 -13.708527 -7.363479 -3.720941 18.141151 -14.05274 -3.242677 7e-06 -18.78727 -3e-06 -0.429712 -8.456046 2.555505 3e-06 -2e-06 -0.0 -15.923539 -20.094486 -5.473587 30.419222 -7.190827 1.735926 3e-06 -8.162928 -3e-06 -1.861903 -22.861471 -6.167944 0.0 -3e-06 -2e-06 175.431015 -5.482243 -2.191086 20.735334 -0.121158 0.312395 -82.475548 3.168504 -5.178449 -6.35902 1.529487 2.119432 -0.999999 -0.0 0.0 -2.149451 -2.915495 -7.195138 18.640688 0.0709 0.007528 -81.610878 -8.000362 -8.000223 -7.018006 0.616768 1.603521 -1.000001 -0.0 0.0 
